<svg width="202" height="268" viewBox="0 0 202 268" fill="none" xmlns="http://www.w3.org/2000/svg">
<path d="M62.1485 63.5948C62.1485 63.5948 48.7962 67.3947 42.6235 69.4523C30.9256 73.3518 23.6693 86.1843 23.6486 86.2208C23.648 86.2219 23.6492 86.2198 23.6486 86.2209C23.6274 86.2573 -1.22625 128.997 1.16167 141.58C2.6272 149.302 12.9564 158.687 23.6483 166.388M62.1485 63.5948L56.9801 35.6856C56.5207 34.2308 56.9112 30.0118 62.1485 24.7746C67.3858 19.5373 69.9585 19.2616 69.9585 19.2616M62.1485 63.5948C62.1485 63.5948 69.4654 91.7134 71.7961 95.5239C74.1268 99.3345 83.3 106.784 101.658 107.116M69.9585 19.2616C69.9585 19.2616 86.1527 1 99.8202 1C117.278 1 127.959 12.3705 130.831 16.7349C131.42 17.631 132.073 18.2947 132.783 18.8592M69.9585 19.2616C78.7256 15.5477 103.564 10.2678 132.783 18.8592M139.564 63.5948C143.16 50.7881 146.629 34.0973 143.35 28.6796C139.151 21.743 135.533 21.0441 132.783 18.8592M139.564 63.5948C138.524 67.2951 135.401 80.8138 134.5 83.5L132.5 91C129.797 101.5 123.273 106.94 103.61 107.124C102.948 107.13 102.298 107.127 101.658 107.116M139.564 63.5948C143.927 64.2457 154.261 66.3283 160.692 69.4523C168.732 73.3573 175.164 81.2822 178.839 86.2209C181.779 90.1718 188.18 104.1 191.013 110.57C193.693 117.499 200.021 131.83 200.661 134.804C201.303 137.79 201.303 141.35 198.202 145.255L186.304 157.2M186.304 157.2C186.381 158.042 185.937 160.255 183.548 162.368C180.562 165.01 172.982 172.016 172.063 172.705C171.144 173.394 169.536 175.117 168.732 177.644C167.928 180.17 166.435 184.765 165.401 186.143C164.462 187.396 162.004 192.634 154.146 195.648M186.304 157.2C183.732 148.655 172.169 139.206 166.273 135.722M166.273 135.722C166.273 135.722 171.644 132.216 173.671 131.588C176.265 130.784 179.528 130.439 183.548 132.277M166.273 135.722C166.273 135.722 164.234 137.249 162.474 138.938M162.474 138.938L149.768 116.499C149.616 116.231 149.207 116.339 149.207 116.647V149.833M162.474 138.938C158.9 142.366 152.881 147.881 149.207 149.833M149.207 149.833C148.439 150.241 147.774 150.493 147.255 150.538C141.971 150.998 136.343 156.396 135.425 162.368C134.693 167.127 132.457 171.596 131.418 173.259C131.409 173.273 131.4 173.285 131.389 173.298C129.512 175.411 126.637 179.922 130.027 181.204C134.276 182.812 137.033 178.563 139.789 176.61C142.546 174.658 145.417 167.881 146.451 166.273C147.274 164.992 152.645 165.731 155.261 166.266C155.284 166.271 155.304 166.278 155.325 166.289C155.906 166.586 156.919 167.84 156.558 170.638C156.192 173.467 152.623 176.456 150.85 177.621C150.826 177.637 150.802 177.648 150.775 177.656C146.855 178.848 138.681 181.414 137.033 182.238C135.381 183.063 135.272 185.179 135.424 186.138C135.424 186.141 135.424 186.141 135.425 186.144C135.438 186.245 136.083 191.175 138 193.5C141.463 197.701 143.717 198.685 151.619 196.48C152.518 196.229 153.359 195.949 154.146 195.648M11.1539 130.899C14.14 128.602 22.4554 124.834 31.8274 128.142C35.5569 129.458 39.2767 131.388 42.6235 133.435M52.2712 144.451C50.1737 142.538 47.6302 137.79 42.6235 133.435M52.2712 144.451V116.699C52.2712 116.387 51.8547 116.282 51.707 116.557L42.6235 133.435M52.2712 144.451C54.6292 144.336 60.0803 144.727 63.0205 147.208C65.926 149.659 66.5286 151.714 66.4685 152.465C66.4671 152.483 66.4668 152.499 66.4682 152.517C66.5462 153.524 66.7434 155.643 66.9255 156.281C67.1552 157.085 69.0864 162.713 73.4041 165.814C76.8383 168.28 74.3814 171.178 72.6974 172.34C72.6776 172.354 72.6577 172.364 72.6351 172.372C71.69 172.706 69.1902 172.745 66.4661 170.293M101.658 107.116V204.634M198.823 209.573H155.294M87.6458 222.781C92.8008 217.922 100.678 210.496 101.574 209.652C101.63 209.599 101.7 209.573 101.777 209.573H105.103M87.6458 222.781C82.4021 217.918 74.3867 210.484 73.487 209.65C73.4315 209.598 73.3615 209.573 73.2859 209.573C63.784 209.573 55.7435 209.573 48.1365 209.573M87.6458 222.781C68.1021 222.781 38.2015 222.781 34.9823 222.781C34.8166 222.781 34.6987 222.647 34.6987 222.481V209.573M87.6458 222.781C106.882 222.781 136.307 222.781 139.504 222.781C139.67 222.781 139.789 222.647 139.789 222.481V209.573M87.6458 222.781V201.878M3.91814 209.573C6.92503 209.573 9.78553 209.573 12.5321 209.573M12.5321 209.573C12.9369 198.088 15.7268 173.371 23.6483 166.388M12.5321 209.573C20.635 209.573 27.7462 209.573 34.6987 209.573M23.6483 166.388L37.8019 175.648C37.8451 175.676 37.8793 175.713 37.9031 175.759C40.0223 179.841 44.4072 188.011 51.5352 191C55.0957 192.493 59.2757 193.397 63 192C67 190.5 69.9551 186.985 70.9531 185.339M48.1365 209.573C43.5751 209.573 39.1697 209.573 34.6987 209.573M48.1365 209.573L49 189.661M155.294 209.573C155.179 206.185 154.789 198.657 154.146 195.648M155.294 209.573H139.789M139.789 209.573H105.103M87.6458 201.878L93.235 198.748C93.3298 198.695 93.3885 198.595 93.3885 198.486V186.995C93.3885 186.893 93.3371 186.799 93.2519 186.743L91.2279 185.428C91.1428 185.372 91.0914 185.278 91.0914 185.176V157.11C91.0914 157.093 91.0902 157.077 91.0873 157.061C90.8867 155.906 89.927 153.687 87.6458 153.869C85.3656 154.052 84.4812 156.06 84.3186 157.063C84.3161 157.078 84.3151 157.093 84.3151 157.108V185.339M87.6458 201.878L81.8312 198.747C81.7341 198.694 81.6735 198.593 81.6735 198.483V194.872M84.3151 185.339L81.8258 186.746C81.7317 186.799 81.6735 186.899 81.6735 187.007V194.872M84.3151 185.339L56.8185 162.368C56.0074 161.756 53.2266 161.059 51.5352 163.172C49.8439 165.286 51.3438 167.887 51.5352 168.455M81.6735 194.872L70.9531 185.339M129.797 56.7037V51.261C129.797 51.0954 129.663 50.961 129.497 50.961H73.2446C73.079 50.961 72.9446 51.0954 72.9446 51.261V56.7037M129.797 56.7037H72.9446M129.797 56.7037L125.143 76.1135C125.111 76.2484 124.99 76.3435 124.851 76.3435H77.7767C77.6373 76.3435 77.5163 76.2476 77.4846 76.1119L72.9446 56.7037M168.732 155.477L105.103 209.573M51.5352 168.455C53.258 171.671 55.0957 172.935 58.4264 174.083M51.5352 168.455C54.5404 171.019 58.4264 174.083 58.4264 174.083M70.9531 185.339C72.2088 181.664 69.2226 179.366 67.3849 178.218C65.6764 177.15 64.0542 176.38 58.4264 174.083M74.4864 232.991L51.1025 236.288C50.9281 236.312 50.8123 236.481 50.8522 236.653L52.1913 242.421C52.2332 242.602 52.4265 242.701 52.5977 242.631L74.6424 233.566C74.9687 233.432 74.8358 232.942 74.4864 232.991ZM77.8315 238.979L59.3994 253.587C59.261 253.696 59.2468 253.901 59.3688 254.029L63.3994 258.247C63.5266 258.38 63.7427 258.368 63.8546 258.222L78.2561 239.397C78.4708 239.116 78.1084 238.76 77.8315 238.979ZM83.4242 242.92L74.68 264.729C74.6125 264.897 74.7087 265.086 74.8845 265.131L80.5425 266.571C80.7166 266.616 80.8903 266.498 80.9139 266.32L84.0001 243.071C84.0465 242.721 83.5556 242.592 83.4242 242.92ZM94.6277 266.568L99.9481 265.136C100.124 265.089 100.217 264.898 100.147 264.73L91.0407 243.039C90.903 242.712 90.4106 242.853 90.468 243.204L94.2537 266.327C94.2824 266.502 94.4562 266.615 94.6277 266.568ZM96.6683 239.447L111.545 258.222C111.66 258.368 111.878 258.375 112.003 258.237L115.799 254.03C115.915 253.901 115.898 253.7 115.76 253.593L97.088 239.024C96.8081 238.806 96.4479 239.169 96.6683 239.447ZM124.304 236.665L122.654 242.441C122.604 242.614 122.416 242.705 122.25 242.635L100.486 233.559C100.161 233.423 100.295 232.936 100.644 232.985L124.058 236.285C124.238 236.311 124.354 236.49 124.304 236.665ZM77.6362 61.0989L80.5815 72.4436C80.6158 72.5759 80.7352 72.6682 80.8719 72.6682H121.98C122.119 72.6682 122.239 72.5732 122.272 72.4383L124.999 61.0937C125.044 60.905 124.901 60.7235 124.707 60.7235H77.9266C77.7303 60.7235 77.5869 60.9089 77.6362 61.0989Z" stroke="#B0EE00"/>
</svg>
