<svg xmlns="http://www.w3.org/2000/svg" height="48" viewBox="0 -960 960 960" width="48"><path d="M150.693-243.616q-12.645 0-21.168-8.765-8.524-8.764-8.524-20.807t8.524-20.428Q138.048-302 150.693-302h660.614q11.67 0 20.181 8.58 8.511 8.58 8.511 20.623 0 12.043-8.511 20.612-8.511 8.569-20.181 8.569H150.693Zm0-207.692q-12.645 0-21.168-8.765-8.524-8.764-8.524-20.807t8.524-20.427q8.523-8.385 21.168-8.385h660.614q11.67 0 20.181 8.58 8.511 8.581 8.511 20.623 0 12.043-8.511 20.612-8.511 8.569-20.181 8.569H150.693Zm0-206.692q-12.645 0-21.168-8.764-8.524-8.765-8.524-20.808t8.524-20.427q8.523-8.385 21.168-8.385h660.614q11.67 0 20.181 8.581 8.511 8.58 8.511 20.623 0 12.043-8.511 20.611Q822.977-658 811.307-658H150.693Z"/></svg>