<svg width="134" height="134" viewBox="0 0 134 134" fill="none" xmlns="http://www.w3.org/2000/svg">
<path d="M67 1L67.0128 66.9351L92.2572 6.02393L67.0367 66.9452L113.669 20.331L67.0548 66.9633L127.976 41.7428L67.0649 66.9872L133 67L67.0649 67.0128L127.976 92.2572L67.0548 67.0367L113.669 113.669L67.0367 67.0548L92.2572 127.976L67.0128 67.0649L67 133L66.9872 67.0649L41.7428 127.976L66.9633 67.0548L20.331 113.669L66.9452 67.0367L6.02393 92.2572L66.9351 67.0128L1 67L66.9351 66.9872L6.02393 41.7428L66.9452 66.9633L20.331 20.331L66.9633 66.9452L41.7428 6.02393L66.9872 66.9351L67 1Z" stroke="#B0EE00" stroke-linejoin="round"/>
</svg>
