<svg width="47" height="47" viewBox="0 0 47 47" fill="none" xmlns="http://www.w3.org/2000/svg">
<path d="M23.5 1L23.5044 23.4779L32.1104 2.7127L23.5125 23.4813L39.4099 7.59011L23.5187 23.4875L44.2873 14.8896L23.5221 23.4956L46 23.5L23.5221 23.5044L44.2873 32.1104L23.5187 23.5125L39.4099 39.4099L23.5125 23.5187L32.1104 44.2873L23.5044 23.5221L23.5 46L23.4956 23.5221L14.8896 44.2873L23.4875 23.5187L7.59011 39.4099L23.4813 23.5125L2.7127 32.1104L23.4779 23.5044L1 23.5L23.4779 23.4956L2.7127 14.8896L23.4813 23.4875L7.59011 7.59011L23.4875 23.4813L14.8896 2.7127L23.4956 23.4779L23.5 1Z" stroke="#B0EE00" stroke-linejoin="round"/>
</svg>
