<svg width="202" height="286" viewBox="0 0 202 286" fill="none" xmlns="http://www.w3.org/2000/svg">
<path d="M87.5517 233L139.5 233.061L87.5517 233.02L136.004 252.906L87.5436 233.039L124.623 269.772L87.5292 233.053L107.591 281.042L87.5102 233.061L87.5 285L87.4898 233.061L67.409 281.042L87.4708 233.053L50.3769 269.772L87.4564 233.039L38.9963 252.906L87.4483 233.02L34.5 233H87.4483" stroke="#B0EE00" stroke-linejoin="round"/>
<path d="M62.5 61.5948C62.5 61.5948 48.7962 65.3947 42.6235 67.4523C30.9256 71.3518 23.6693 84.1843 23.6486 84.2208C23.648 84.2219 23.6492 84.2198 23.6486 84.2209C23.6274 84.2573 -1.22625 126.997 1.16167 139.58C2.6272 147.302 12.9564 156.687 23.6483 164.388M62.5 61.5948L57 36.5C56.5199 32.8144 56.9112 28.0118 62.1485 22.7746C67.3858 17.5373 70.5 16.5 70.5 16.5M62.5 61.5948C62.5 61.5948 68.4467 88.0479 71.7961 93.5239C75.1456 99 83.3 104.784 101.658 105.116M70.5 16.5C70.5 16.5 82.1798 0.5 102.5 0.5C122.82 0.5 134 16.5 134 16.5M70.5 16.5C70.5 16.5 104.781 7.90864 134 16.5M134 16.5C136.75 18.6849 141 21.5 143.35 26.6796C145.966 32.4468 141.435 54.7037 139.5 61.5948M139.5 61.5948C138.461 65.2951 131.401 90.8378 130.5 93.5239C128.495 99.5 122.217 104 103.61 105.124C102.949 105.164 102.298 105.127 101.658 105.116M139.5 61.5948C143.863 62.2457 154.261 64.3283 160.692 67.4523C168.732 71.3573 175.164 79.2822 178.839 84.2208C181.779 88.1718 188.18 102.1 191.013 108.57C193.693 115.499 200.021 129.83 200.661 132.804C201.303 135.79 201.303 139.35 198.202 143.255L186.304 155.2M186.304 155.2C186.381 156.042 185.937 158.255 183.548 160.368C180.562 163.01 172.982 170.016 172.063 170.705C171.144 171.394 169.536 173.117 168.732 175.644C167.928 178.17 167.5 181 166 184.143C164.5 187.286 162.004 190.634 154.146 193.648M186.304 155.2C183.732 146.655 172.169 137.206 166.273 133.722M166.273 133.722C166.273 133.722 171.644 130.216 173.671 129.588C176.265 128.784 179.528 128.439 183.548 130.277M166.273 133.722C166.273 133.722 164.234 135.249 162.474 136.938M162.474 136.938L149.768 114.499C149.616 114.231 149.207 114.339 149.207 114.647V147.833M162.474 136.938C158.9 140.366 152.881 145.881 149.207 147.833M149.207 147.833C148.439 148.241 147.774 148.493 147.255 148.538C141.971 148.998 136.343 154.396 135.425 160.368C134.693 165.127 132.457 169.596 131.418 171.259C131.409 171.273 131.4 171.285 131.389 171.298C129.512 173.411 126.637 177.922 130.027 179.204C134.276 180.812 138 176.5 139.789 174.61C142.111 172.157 145.5 167.5 146 166.5C147.369 163.762 152.5 165.5 153 166.5C153.25 167 154.202 168.491 154.202 170.705C154.202 171.279 153.5 174.5 150.815 175.644C146.91 176.831 138.686 179.411 137.033 180.238C135.39 181.059 135.273 183.156 135.422 184.123C135.424 184.136 135.425 184.148 135.425 184.161C135.435 184.454 135.601 188.142 138 191.5C141.532 196.445 143.717 196.685 151.619 194.48C152.518 194.229 153.359 193.949 154.146 193.648M11.1539 128.899C14.14 126.602 22.4554 122.834 31.8274 126.142C35.5569 127.458 39.2767 129.388 42.6235 131.435M52.2712 142.451C50.1737 140.538 47.6302 135.79 42.6235 131.435M52.2712 142.451V114.699C52.2712 114.387 51.8547 114.282 51.707 114.557L42.6235 131.435M52.2712 142.451C54.6292 142.336 58.5598 143.019 61.5 145.5C64.4402 147.981 65.0339 150.509 65.5 152C67.5779 158.646 69.7669 160.699 70.2399 161.172C71.3967 162.329 73.5 164 75.5 165C79.2918 166.896 78.505 170.477 75.0329 170.995C75.0114 170.998 74.9918 171.003 74.9712 171.01C73.9841 171.333 69.195 170.749 66.4661 168.293M101.658 105.116V202.634M198.823 207.573H155.294M87.6458 220.781C92.8008 215.922 100.678 208.496 101.574 207.652C101.63 207.599 101.7 207.573 101.777 207.573H105.103M87.6458 220.781C82.4021 215.918 74.3867 208.484 73.487 207.65C73.4315 207.598 73.3615 207.573 73.2859 207.573C63.784 207.573 55.7435 207.573 48.1365 207.573M87.6458 220.781C68.1021 220.781 38.2015 220.781 34.9823 220.781C34.8166 220.781 34.6987 220.647 34.6987 220.481V207.573M87.6458 220.781C106.882 220.781 136.307 220.781 139.504 220.781C139.67 220.781 139.789 220.647 139.789 220.481V207.573M87.6458 220.781V199.878M3.91814 207.573C6.92503 207.573 9.78553 207.573 12.5321 207.573M12.5321 207.573C12.9369 196.088 15.7268 171.371 23.6483 164.388M12.5321 207.573C20.635 207.573 27.7462 207.573 34.6987 207.573M23.6483 164.388L29.5 174C31.6056 178.058 40.9686 186.994 48.1365 190M48.1365 207.573C43.5751 207.573 39.1697 207.573 34.6987 207.573M48.1365 207.573V190M155.294 207.573C155.179 204.185 154.789 196.657 154.146 193.648M155.294 207.573H139.789M139.789 207.573H105.103M87.6458 199.878L93.235 196.748C93.3298 196.695 93.3885 196.595 93.3885 196.486V184.995C93.3885 184.893 93.3371 184.799 93.2519 184.743L91.2279 183.428C91.1428 183.372 91.0914 183.278 91.0914 183.176V155.11C91.0914 155.093 91.0902 155.077 91.0873 155.061C90.8867 153.906 89.927 151.687 87.6458 151.869C85.3656 152.052 84.4812 154.06 84.3186 155.063C84.3161 155.078 84.3151 155.093 84.3151 155.108V183.339M87.6458 199.878L81.8312 196.747C81.7341 196.694 81.6735 196.593 81.6735 196.483V192.872M84.3151 183.339L81.8258 184.746C81.7317 184.799 81.6735 184.899 81.6735 185.007V192.872M84.3151 183.339L56.8185 160.368C56.0074 159.756 53.2266 159.059 51.5352 161.172C49.8439 163.286 51.3438 165.887 51.5352 166.455M81.6735 192.872L70.9531 183.339M129.797 54.7037V49.2611C129.797 49.0954 129.663 48.9611 129.497 48.9611H73.2446C73.079 48.9611 72.9446 49.0954 72.9446 49.2611V54.7037M129.797 54.7037H72.9446M129.797 54.7037L125.143 74.1135C125.111 74.2484 124.99 74.3435 124.851 74.3435H77.7767C77.6373 74.3435 77.5163 74.2475 77.4846 74.1118L72.9446 54.7037M168.732 153.477L105.103 207.573M48.1365 190C51.6969 191.493 59.2962 195.044 63.0205 193.648C67.0205 192.148 69.9551 184.985 70.9531 183.339M51.5352 166.455C53.258 169.671 56 171.093 58.4264 172.083M51.5352 166.455C53.8222 170.724 58.4264 172.083 58.4264 172.083M70.9531 183.339C72.2088 179.664 69.2226 177.366 67.3849 176.218C65.6764 175.15 64.0542 174.38 58.4264 172.083M77.6362 59.0989L80.5815 70.4436C80.6158 70.5759 80.7352 70.6682 80.8719 70.6682H121.98C122.119 70.6682 122.239 70.5732 122.272 70.4383L124.999 59.0937C125.044 58.905 124.901 58.7235 124.707 58.7235H77.9266C77.7303 58.7235 77.5869 58.9089 77.6362 59.0989Z" stroke="#B0EE00"/>
</svg>
